<?xml version="1.0" encoding="utf-8"?>
<!-- Generator: Adobe Adobe Illustrator 29.1.0, SVG Export Plug-In . SVG Version: 6.00 Build 0)  -->
<svg version="1.1" id="Layer_1" xmlns="http://www.w3.org/2000/svg" xmlns:xlink="http://www.w3.org/1999/xlink" x="0px" y="0px"
	 width="800px" height="800px" viewBox="0 0 800 800" style="enable-background:new 0 0 800 800;" xml:space="preserve">
<style type="text/css">
	.st0{fill:#49755E;stroke:#B59E9F;stroke-miterlimit:10;}
	.st1{fill:none;}
	.st2{font-family:'AlexanderQuill';}
	.st3{font-size:100px;}
</style>
<g>
	<g>
		<path class="st0" d="M256.48,354.33c-14.94,5.33-29.99,9.75-45.09,13.24l5.59-103.26c4.15-76.64,69.64-135.4,146.27-131.25
			s135.4,69.64,131.25,146.27c-2.92,54.02-36.33,99.16-82.64,119.62c-28.98,18.21-64.62,17.06-91.78,0l9.28-16.97
			c37.93,17.93,83.22,1.71,101.15-36.23c0.12-0.25,0.24-0.51,0.36-0.76c15.23-33.19,16.33-69.25,5.82-101.42
			c-11.44-35.01-49.09-54.12-84.1-42.68s-54.12,49.09-42.68,84.1c9.31,28.5,36,46.46,64.49,45.97c9.76-0.17,17.54-8.22,17.37-17.98
			c-0.17-9.76-8.22-17.54-17.98-17.37c4.27-18.23,20.22-30.69,38.07-31.3c-2.34-0.06-1.16-0.06,0,0c2.91,19.07,2.81,37.91,0,56.02
			c-4.02,25.93-28.3,43.69-54.23,39.67c-5.89-0.91-11.36-2.87-16.24-5.67c-38.84-22.25-60.36-63.11-59.75-104.9
			c0.27-18.19,8.23-34.47,20.74-45.77l-8.84-9.79l-0.02,0.01C239.72,228.71,223.58,299.85,256.48,354.33z"/>
	</g>
	<path class="st0" d="M259.68,610.1c-15.34,11.6-35.85,15.89-55.62,9.77c-17.08-5.29-28.62-22.04-26.71-40.51
		c1.79-17.28,10.47-33.8,25.42-45.09c0.78-0.59,1.71-1.03,2.73-1.25c3.81-0.84,7.58,1.58,8.41,5.39l2.7,12.31
		c-0.9,0.09-1.8,0.27-2.7,0.54c-7.76,2.32-12.17,10.5-9.85,18.26c2.32,7.76,10.5,12.17,18.26,9.85c0.41-0.12,0.82-0.25,1.22-0.39
		c16.66-5.74,25.52-23.9,19.78-40.57c-5.74-16.66-23.9-25.52-40.57-19.78c-20.2,6.96-37.47,22.14-46.43,43.38
		c-17.5,36.59-2.02,80.44,34.57,97.94c36.59,17.5,80.44,2.02,97.94-34.57c5.3-11.07,7.57-22.81,7.14-34.28l3.33-236.77h-32.5
		L259.68,610.1z"/>
	<rect x="313.49" y="539.72" class="st1" width="375.45" height="115.4"/>
	<text transform="matrix(1 0 0 1 313.49 619.8186)" class="st0 st2 st3">BHAVYA</text>
	
		<rect x="317.69" y="515.87" transform="matrix(-1 -1.224647e-16 1.224647e-16 -1 993.5359 1043.7454)" class="st0" width="358.16" height="12"/>
	
		<rect x="317.69" y="639.12" transform="matrix(-1 -1.224647e-16 1.224647e-16 -1 991.845 1290.2379)" class="st0" width="356.47" height="12"/>
</g>
</svg>
